<mxfile host="app.diagrams.net" modified="2024-04-29T15:01:34.493Z" agent="Mozilla/5.0 (Macintosh; Intel Mac OS X 10_15_7) AppleWebKit/537.36 (KHTML, like Gecko) Chrome/124.0.0.0 Safari/537.36" etag="E0qk2zIR5rgwpOobc4MT" version="24.3.1" type="device">
  <diagram id="tinYTS8UIeTEKXt2XPSf" name="Page-1">
    <mxGraphModel dx="2347" dy="1441" grid="1" gridSize="10" guides="1" tooltips="1" connect="1" arrows="1" fold="1" page="1" pageScale="1" pageWidth="1100" pageHeight="850" math="0" shadow="0">
      <root>
        <mxCell id="0" />
        <mxCell id="1" parent="0" />
        <mxCell id="9Sg-FpnQoyW8FFDNCrjP-19" value="" style="group" parent="1" vertex="1" connectable="0">
          <mxGeometry x="-330" y="370" width="162.5" height="270" as="geometry" />
        </mxCell>
        <mxCell id="9Sg-FpnQoyW8FFDNCrjP-1" value="" style="rounded=0;whiteSpace=wrap;html=1;" parent="9Sg-FpnQoyW8FFDNCrjP-19" vertex="1">
          <mxGeometry width="160" height="270" as="geometry" />
        </mxCell>
        <mxCell id="9Sg-FpnQoyW8FFDNCrjP-2" value="Lifting Log&lt;br&gt;Sign in&lt;br&gt;" style="text;html=1;strokeColor=none;fillColor=none;align=center;verticalAlign=middle;whiteSpace=wrap;rounded=0;" parent="9Sg-FpnQoyW8FFDNCrjP-19" vertex="1">
          <mxGeometry x="50" width="60" height="30" as="geometry" />
        </mxCell>
        <mxCell id="9Sg-FpnQoyW8FFDNCrjP-3" value="Email" style="rounded=0;whiteSpace=wrap;html=1;" parent="9Sg-FpnQoyW8FFDNCrjP-19" vertex="1">
          <mxGeometry x="20" y="80" width="120" height="20" as="geometry" />
        </mxCell>
        <mxCell id="9Sg-FpnQoyW8FFDNCrjP-4" value="Password" style="rounded=0;whiteSpace=wrap;html=1;" parent="9Sg-FpnQoyW8FFDNCrjP-19" vertex="1">
          <mxGeometry x="20" y="110" width="120" height="20" as="geometry" />
        </mxCell>
        <mxCell id="9Sg-FpnQoyW8FFDNCrjP-5" value="Apple login" style="rounded=0;whiteSpace=wrap;html=1;" parent="9Sg-FpnQoyW8FFDNCrjP-19" vertex="1">
          <mxGeometry x="20" y="210" width="120" height="20" as="geometry" />
        </mxCell>
        <mxCell id="9Sg-FpnQoyW8FFDNCrjP-6" value="Signup" style="rounded=0;whiteSpace=wrap;html=1;" parent="9Sg-FpnQoyW8FFDNCrjP-19" vertex="1">
          <mxGeometry x="20" y="180" width="120" height="20" as="geometry" />
        </mxCell>
        <mxCell id="9Sg-FpnQoyW8FFDNCrjP-51" value="Sign in" style="rounded=0;whiteSpace=wrap;html=1;" parent="9Sg-FpnQoyW8FFDNCrjP-19" vertex="1">
          <mxGeometry x="20" y="150" width="120" height="20" as="geometry" />
        </mxCell>
        <mxCell id="S4i9Vi7lNQ9c3gx2z7o1-133" value="" style="line;strokeWidth=2;html=1;" parent="9Sg-FpnQoyW8FFDNCrjP-19" vertex="1">
          <mxGeometry y="40" width="162.5" height="10" as="geometry" />
        </mxCell>
        <mxCell id="9Sg-FpnQoyW8FFDNCrjP-25" style="edgeStyle=orthogonalEdgeStyle;rounded=0;orthogonalLoop=1;jettySize=auto;html=1;exitX=1;exitY=0.5;exitDx=0;exitDy=0;entryX=1;entryY=0;entryDx=0;entryDy=0;" parent="1" source="9Sg-FpnQoyW8FFDNCrjP-6" target="9Sg-FpnQoyW8FFDNCrjP-27" edge="1">
          <mxGeometry relative="1" as="geometry">
            <mxPoint x="260" y="720" as="targetPoint" />
          </mxGeometry>
        </mxCell>
        <mxCell id="9Sg-FpnQoyW8FFDNCrjP-26" value="asdad" style="group" parent="1" vertex="1" connectable="0">
          <mxGeometry x="60" y="820" width="162.5" height="270" as="geometry" />
        </mxCell>
        <mxCell id="9Sg-FpnQoyW8FFDNCrjP-27" value="" style="rounded=0;whiteSpace=wrap;html=1;" parent="9Sg-FpnQoyW8FFDNCrjP-26" vertex="1">
          <mxGeometry width="160" height="270" as="geometry" />
        </mxCell>
        <mxCell id="9Sg-FpnQoyW8FFDNCrjP-28" value="Lifting Log&lt;br&gt;Sign up" style="text;html=1;strokeColor=none;fillColor=none;align=center;verticalAlign=middle;whiteSpace=wrap;rounded=0;" parent="9Sg-FpnQoyW8FFDNCrjP-26" vertex="1">
          <mxGeometry x="50" width="60" height="30" as="geometry" />
        </mxCell>
        <mxCell id="9Sg-FpnQoyW8FFDNCrjP-45" value="First Name" style="rounded=0;whiteSpace=wrap;html=1;" parent="9Sg-FpnQoyW8FFDNCrjP-26" vertex="1">
          <mxGeometry x="20" y="50" width="120" height="20" as="geometry" />
        </mxCell>
        <mxCell id="9Sg-FpnQoyW8FFDNCrjP-44" value="Last name" style="rounded=0;whiteSpace=wrap;html=1;" parent="9Sg-FpnQoyW8FFDNCrjP-26" vertex="1">
          <mxGeometry x="20" y="80" width="120" height="20" as="geometry" />
        </mxCell>
        <mxCell id="9Sg-FpnQoyW8FFDNCrjP-47" value="Email" style="rounded=0;whiteSpace=wrap;html=1;" parent="9Sg-FpnQoyW8FFDNCrjP-26" vertex="1">
          <mxGeometry x="20" y="110" width="120" height="20" as="geometry" />
        </mxCell>
        <mxCell id="9Sg-FpnQoyW8FFDNCrjP-46" value="DOB" style="rounded=0;whiteSpace=wrap;html=1;" parent="9Sg-FpnQoyW8FFDNCrjP-26" vertex="1">
          <mxGeometry x="20" y="140" width="120" height="20" as="geometry" />
        </mxCell>
        <mxCell id="9Sg-FpnQoyW8FFDNCrjP-43" value="Create account" style="rounded=0;whiteSpace=wrap;html=1;" parent="9Sg-FpnQoyW8FFDNCrjP-26" vertex="1">
          <mxGeometry x="20" y="180" width="120" height="20" as="geometry" />
        </mxCell>
        <mxCell id="9Sg-FpnQoyW8FFDNCrjP-49" value="Cancel" style="rounded=0;whiteSpace=wrap;html=1;" parent="9Sg-FpnQoyW8FFDNCrjP-26" vertex="1">
          <mxGeometry x="20" y="210" width="120" height="20" as="geometry" />
        </mxCell>
        <mxCell id="S4i9Vi7lNQ9c3gx2z7o1-134" value="" style="line;strokeWidth=2;html=1;" parent="9Sg-FpnQoyW8FFDNCrjP-26" vertex="1">
          <mxGeometry y="30" width="162.5" height="10" as="geometry" />
        </mxCell>
        <mxCell id="9Sg-FpnQoyW8FFDNCrjP-52" value="" style="group;fontColor=#3333FF;" parent="1" vertex="1" connectable="0">
          <mxGeometry x="520" y="320" width="237.5" height="280" as="geometry" />
        </mxCell>
        <mxCell id="9Sg-FpnQoyW8FFDNCrjP-53" value="" style="rounded=0;whiteSpace=wrap;html=1;" parent="9Sg-FpnQoyW8FFDNCrjP-52" vertex="1">
          <mxGeometry width="160" height="280" as="geometry" />
        </mxCell>
        <mxCell id="9Sg-FpnQoyW8FFDNCrjP-54" value="Main Menu" style="text;html=1;strokeColor=none;fillColor=none;align=center;verticalAlign=middle;whiteSpace=wrap;rounded=0;" parent="9Sg-FpnQoyW8FFDNCrjP-52" vertex="1">
          <mxGeometry x="50" width="60" height="31.11111111111111" as="geometry" />
        </mxCell>
        <mxCell id="9Sg-FpnQoyW8FFDNCrjP-55" value="Start a workout" style="rounded=0;whiteSpace=wrap;html=1;" parent="9Sg-FpnQoyW8FFDNCrjP-52" vertex="1">
          <mxGeometry x="20" y="82.96296296296296" width="120" height="20.74074074074074" as="geometry" />
        </mxCell>
        <mxCell id="9Sg-FpnQoyW8FFDNCrjP-58" value="531 Workout Plan" style="rounded=0;whiteSpace=wrap;html=1;" parent="9Sg-FpnQoyW8FFDNCrjP-52" vertex="1">
          <mxGeometry x="20" y="159.99666666666667" width="120" height="20.74074074074074" as="geometry" />
        </mxCell>
        <mxCell id="9Sg-FpnQoyW8FFDNCrjP-59" value="View past workout" style="rounded=0;whiteSpace=wrap;html=1;" parent="9Sg-FpnQoyW8FFDNCrjP-52" vertex="1">
          <mxGeometry x="20" y="119.99555555555554" width="120" height="20.74074074074074" as="geometry" />
        </mxCell>
        <mxCell id="S4i9Vi7lNQ9c3gx2z7o1-172" value="1RM Calculator&lt;span style=&quot;caret-color: rgba(0, 0, 0, 0); color: rgba(0, 0, 0, 0); font-family: monospace; font-size: 0px; text-align: start;&quot;&gt;%3CmxGraphModel%3E%3Croot%3E%3CmxCell%20id%3D%220%22%2F%3E%3CmxCell%20id%3D%221%22%20parent%3D%220%22%2F%3E%3CmxCell%20id%3D%222%22%20value%3D%22%22%20style%3D%22rounded%3D0%3BwhiteSpace%3Dwrap%3Bhtml%3D1%3BfontColor%3D%23000000%3B%22%20vertex%3D%221%22%20parent%3D%221%22%3E%3CmxGeometry%20x%3D%22350%22%20y%3D%22670%22%20width%3D%22170%22%20height%3D%22280%22%20as%3D%22geometry%22%2F%3E%3C%2FmxCell%3E%3CmxCell%20id%3D%223%22%20value%3D%22Wilks%20number%26lt%3Bbr%26gt%3B(all%20numbers%20in%20lb)%22%20style%3D%22text%3Bhtml%3D1%3BstrokeColor%3Dnone%3BfillColor%3Dnone%3Balign%3Dcenter%3BverticalAlign%3Dmiddle%3BwhiteSpace%3Dwrap%3Brounded%3D0%3BfontColor%3D%23000000%3B%22%20vertex%3D%221%22%20parent%3D%221%22%3E%3CmxGeometry%20x%3D%22360%22%20y%3D%22670%22%20width%3D%22140%22%20height%3D%2230%22%20as%3D%22geometry%22%2F%3E%3C%2FmxCell%3E%3CmxCell%20id%3D%224%22%20value%3D%22%26lt%3Bspan%20style%3D%26quot%3Bcaret-color%3A%20rgba(0%2C%200%2C%200%2C%200)%3B%20color%3A%20rgba(0%2C%200%2C%200%2C%200)%3B%20font-family%3A%20monospace%3B%20font-size%3A%200px%3B%20text-align%3A%20start%3B%20background-color%3A%20rgb(248%2C%20249%2C%20250)%3B%26quot%3B%26gt%3B%253CmxGraphModel%253E%253Croot%253E%253CmxCell%2520id%253D%25220%2522%252F%253E%253CmxCell%2520id%253D%25221%2522%2520parent%253D%25220%2522%252F%253E%253CmxCell%2520id%253D%25222%2522%2520value%253D%2522Save%2522%2520style%253D%2522rounded%253D0%253BwhiteSpace%253Dwrap%253Bhtml%253D1%253BfontColor%253D%2523000000%253B%2522%2520vertex%253D%25221%2522%2520parent%253D%25221%2522%253E%253CmxGeometry%2520x%253D%2522320%2522%2520y%253D%2522-93.75%2522%2520width%253D%2522100%2522%2520height%253D%252223.75%2522%2520as%253D%2522geometry%2522%252F%253E%253C%252FmxCell%253E%253C%252Froot%253E%253C%252FmxGraphModel%253E%26lt%3B%2Fspan%26gt%3B%22%20style%3D%22line%3BstrokeWidth%3D2%3Bhtml%3D1%3B%22%20vertex%3D%221%22%20parent%3D%221%22%3E%3CmxGeometry%20x%3D%22353.75%22%20y%3D%22700%22%20width%3D%22162.5%22%20height%3D%2210%22%20as%3D%22geometry%22%2F%3E%3C%2FmxCell%3E%3CmxCell%20id%3D%225%22%20value%3D%22Weight%22%20style%3D%22rounded%3D0%3BwhiteSpace%3Dwrap%3Bhtml%3D1%3BfontColor%3D%23000000%3B%22%20vertex%3D%221%22%20parent%3D%221%22%3E%3CmxGeometry%20x%3D%22370%22%20y%3D%22740%22%20width%3D%22120%22%20height%3D%2220%22%20as%3D%22geometry%22%2F%3E%3C%2FmxCell%3E%3CmxCell%20id%3D%226%22%20value%3D%22Max%20DL%26amp%3Bnbsp%3B%22%20style%3D%22rounded%3D0%3BwhiteSpace%3Dwrap%3Bhtml%3D1%3BfontColor%3D%23000000%3B%22%20vertex%3D%221%22%20parent%3D%221%22%3E%3CmxGeometry%20x%3D%22370%22%20y%3D%22770%22%20width%3D%22120%22%20height%3D%2220%22%20as%3D%22geometry%22%2F%3E%3C%2FmxCell%3E%3CmxCell%20id%3D%227%22%20value%3D%22Max%20Bench%26amp%3Bnbsp%3B%22%20style%3D%22rounded%3D0%3BwhiteSpace%3Dwrap%3Bhtml%3D1%3BfontColor%3D%23000000%3B%22%20vertex%3D%221%22%20parent%3D%221%22%3E%3CmxGeometry%20x%3D%22370%22%20y%3D%22800%22%20width%3D%22120%22%20height%3D%2220%22%20as%3D%22geometry%22%2F%3E%3C%2FmxCell%3E%3CmxCell%20id%3D%228%22%20value%3D%22Male%20%2F%20Female%22%20style%3D%22rounded%3D0%3BwhiteSpace%3Dwrap%3Bhtml%3D1%3BfontColor%3D%23000000%3B%22%20vertex%3D%221%22%20parent%3D%221%22%3E%3CmxGeometry%20x%3D%22370%22%20y%3D%22710%22%20width%3D%22120%22%20height%3D%2220%22%20as%3D%22geometry%22%2F%3E%3C%2FmxCell%3E%3CmxCell%20id%3D%229%22%20value%3D%22%5BOUTPUT%20WILKS%5D%22%20style%3D%22rounded%3D0%3BwhiteSpace%3Dwrap%3Bhtml%3D1%3BfontColor%3D%23000000%3B%22%20vertex%3D%221%22%20parent%3D%221%22%3E%3CmxGeometry%20x%3D%22370%22%20y%3D%22860%22%20width%3D%22120%22%20height%3D%2220%22%20as%3D%22geometry%22%2F%3E%3C%2FmxCell%3E%3CmxCell%20id%3D%2210%22%20value%3D%22Max%20Squat%26lt%3Bbr%26gt%3B%22%20style%3D%22rounded%3D0%3BwhiteSpace%3Dwrap%3Bhtml%3D1%3BfontColor%3D%23000000%3B%22%20vertex%3D%221%22%20parent%3D%221%22%3E%3CmxGeometry%20x%3D%22370%22%20y%3D%22830%22%20width%3D%22120%22%20height%3D%2220%22%20as%3D%22geometry%22%2F%3E%3C%2FmxCell%3E%3CmxCell%20id%3D%2211%22%20value%3D%22Back%22%20style%3D%22rounded%3D0%3BwhiteSpace%3Dwrap%3Bhtml%3D1%3BfontColor%3D%23000000%3B%22%20vertex%3D%221%22%20parent%3D%221%22%3E%3CmxGeometry%20x%3D%22380%22%20y%3D%22890%22%20width%3D%22100%22%20height%3D%2220%22%20as%3D%22geometry%22%2F%3E%3C%2FmxCell%3E%3C%2Froot%3E%3C%2FmxGraphModel%3E&lt;/span&gt;" style="rounded=0;whiteSpace=wrap;html=1;fontColor=#000000;" parent="9Sg-FpnQoyW8FFDNCrjP-52" vertex="1">
          <mxGeometry x="20" y="200" width="120" height="20.74" as="geometry" />
        </mxCell>
        <mxCell id="WgYySzokD8t3va2fA1Zr-3" value="My Profile&amp;nbsp;" style="rounded=0;whiteSpace=wrap;html=1;fontColor=#000000;" vertex="1" parent="9Sg-FpnQoyW8FFDNCrjP-52">
          <mxGeometry x="20" y="50" width="120" height="20.74" as="geometry" />
        </mxCell>
        <mxCell id="S4i9Vi7lNQ9c3gx2z7o1-16" value="" style="rounded=0;whiteSpace=wrap;html=1;" parent="1" vertex="1">
          <mxGeometry x="1360" y="-50" width="240" height="336.25" as="geometry" />
        </mxCell>
        <mxCell id="S4i9Vi7lNQ9c3gx2z7o1-17" value="[Workout title] - [Date]" style="text;html=1;strokeColor=none;fillColor=none;align=center;verticalAlign=middle;whiteSpace=wrap;rounded=0;" parent="1" vertex="1">
          <mxGeometry x="1375" y="-40" width="210" height="30" as="geometry" />
        </mxCell>
        <mxCell id="S4i9Vi7lNQ9c3gx2z7o1-18" value="" style="shape=table;html=1;whiteSpace=wrap;startSize=0;container=1;collapsible=0;childLayout=tableLayout;" parent="1" vertex="1">
          <mxGeometry x="1370" y="21.25" width="220" height="150.5" as="geometry" />
        </mxCell>
        <mxCell id="S4i9Vi7lNQ9c3gx2z7o1-19" value="" style="shape=tableRow;horizontal=0;startSize=0;swimlaneHead=0;swimlaneBody=0;top=0;left=0;bottom=0;right=0;collapsible=0;dropTarget=0;fillColor=none;points=[[0,0.5],[1,0.5]];portConstraint=eastwest;" parent="S4i9Vi7lNQ9c3gx2z7o1-18" vertex="1">
          <mxGeometry width="220" height="68" as="geometry" />
        </mxCell>
        <mxCell id="S4i9Vi7lNQ9c3gx2z7o1-20" value="Workout" style="shape=partialRectangle;html=1;whiteSpace=wrap;connectable=0;fillColor=none;top=0;left=0;bottom=0;right=0;overflow=hidden;" parent="S4i9Vi7lNQ9c3gx2z7o1-19" vertex="1">
          <mxGeometry width="44" height="68" as="geometry">
            <mxRectangle width="44" height="68" as="alternateBounds" />
          </mxGeometry>
        </mxCell>
        <mxCell id="S4i9Vi7lNQ9c3gx2z7o1-21" value="Sets&lt;span style=&quot;white-space: pre;&quot;&gt;&lt;br&gt;&lt;/span&gt;" style="shape=partialRectangle;html=1;whiteSpace=wrap;connectable=0;fillColor=none;top=0;left=0;bottom=0;right=0;overflow=hidden;" parent="S4i9Vi7lNQ9c3gx2z7o1-19" vertex="1">
          <mxGeometry x="44" width="50" height="68" as="geometry">
            <mxRectangle width="50" height="68" as="alternateBounds" />
          </mxGeometry>
        </mxCell>
        <mxCell id="S4i9Vi7lNQ9c3gx2z7o1-22" value="Reps" style="shape=partialRectangle;html=1;whiteSpace=wrap;connectable=0;fillColor=none;top=0;left=0;bottom=0;right=0;overflow=hidden;" parent="S4i9Vi7lNQ9c3gx2z7o1-19" vertex="1">
          <mxGeometry x="94" width="38" height="68" as="geometry">
            <mxRectangle width="38" height="68" as="alternateBounds" />
          </mxGeometry>
        </mxCell>
        <mxCell id="S4i9Vi7lNQ9c3gx2z7o1-45" value="Weight" style="shape=partialRectangle;html=1;whiteSpace=wrap;connectable=0;fillColor=none;top=0;left=0;bottom=0;right=0;overflow=hidden;" parent="S4i9Vi7lNQ9c3gx2z7o1-19" vertex="1">
          <mxGeometry x="132" width="44" height="68" as="geometry">
            <mxRectangle width="44" height="68" as="alternateBounds" />
          </mxGeometry>
        </mxCell>
        <mxCell id="S4i9Vi7lNQ9c3gx2z7o1-48" value="Any comments" style="shape=partialRectangle;html=1;whiteSpace=wrap;connectable=0;fillColor=none;top=0;left=0;bottom=0;right=0;overflow=hidden;" parent="S4i9Vi7lNQ9c3gx2z7o1-19" vertex="1">
          <mxGeometry x="176" width="44" height="68" as="geometry">
            <mxRectangle width="44" height="68" as="alternateBounds" />
          </mxGeometry>
        </mxCell>
        <mxCell id="S4i9Vi7lNQ9c3gx2z7o1-23" value="" style="shape=tableRow;horizontal=0;startSize=0;swimlaneHead=0;swimlaneBody=0;top=0;left=0;bottom=0;right=0;collapsible=0;dropTarget=0;fillColor=none;points=[[0,0.5],[1,0.5]];portConstraint=eastwest;" parent="S4i9Vi7lNQ9c3gx2z7o1-18" vertex="1">
          <mxGeometry y="68" width="220" height="41" as="geometry" />
        </mxCell>
        <mxCell id="S4i9Vi7lNQ9c3gx2z7o1-24" value="" style="shape=partialRectangle;html=1;whiteSpace=wrap;connectable=0;fillColor=none;top=0;left=0;bottom=0;right=0;overflow=hidden;" parent="S4i9Vi7lNQ9c3gx2z7o1-23" vertex="1">
          <mxGeometry width="44" height="41" as="geometry">
            <mxRectangle width="44" height="41" as="alternateBounds" />
          </mxGeometry>
        </mxCell>
        <mxCell id="S4i9Vi7lNQ9c3gx2z7o1-25" value="" style="shape=partialRectangle;html=1;whiteSpace=wrap;connectable=0;fillColor=none;top=0;left=0;bottom=0;right=0;overflow=hidden;" parent="S4i9Vi7lNQ9c3gx2z7o1-23" vertex="1">
          <mxGeometry x="44" width="50" height="41" as="geometry">
            <mxRectangle width="50" height="41" as="alternateBounds" />
          </mxGeometry>
        </mxCell>
        <mxCell id="S4i9Vi7lNQ9c3gx2z7o1-26" value="" style="shape=partialRectangle;html=1;whiteSpace=wrap;connectable=0;fillColor=none;top=0;left=0;bottom=0;right=0;overflow=hidden;" parent="S4i9Vi7lNQ9c3gx2z7o1-23" vertex="1">
          <mxGeometry x="94" width="38" height="41" as="geometry">
            <mxRectangle width="38" height="41" as="alternateBounds" />
          </mxGeometry>
        </mxCell>
        <mxCell id="S4i9Vi7lNQ9c3gx2z7o1-46" style="shape=partialRectangle;html=1;whiteSpace=wrap;connectable=0;fillColor=none;top=0;left=0;bottom=0;right=0;overflow=hidden;" parent="S4i9Vi7lNQ9c3gx2z7o1-23" vertex="1">
          <mxGeometry x="132" width="44" height="41" as="geometry">
            <mxRectangle width="44" height="41" as="alternateBounds" />
          </mxGeometry>
        </mxCell>
        <mxCell id="S4i9Vi7lNQ9c3gx2z7o1-49" style="shape=partialRectangle;html=1;whiteSpace=wrap;connectable=0;fillColor=none;top=0;left=0;bottom=0;right=0;overflow=hidden;" parent="S4i9Vi7lNQ9c3gx2z7o1-23" vertex="1">
          <mxGeometry x="176" width="44" height="41" as="geometry">
            <mxRectangle width="44" height="41" as="alternateBounds" />
          </mxGeometry>
        </mxCell>
        <mxCell id="S4i9Vi7lNQ9c3gx2z7o1-27" value="" style="shape=tableRow;horizontal=0;startSize=0;swimlaneHead=0;swimlaneBody=0;top=0;left=0;bottom=0;right=0;collapsible=0;dropTarget=0;fillColor=none;points=[[0,0.5],[1,0.5]];portConstraint=eastwest;" parent="S4i9Vi7lNQ9c3gx2z7o1-18" vertex="1">
          <mxGeometry y="109" width="220" height="42" as="geometry" />
        </mxCell>
        <mxCell id="S4i9Vi7lNQ9c3gx2z7o1-28" value="" style="shape=partialRectangle;html=1;whiteSpace=wrap;connectable=0;fillColor=none;top=0;left=0;bottom=0;right=0;overflow=hidden;" parent="S4i9Vi7lNQ9c3gx2z7o1-27" vertex="1">
          <mxGeometry width="44" height="42" as="geometry">
            <mxRectangle width="44" height="42" as="alternateBounds" />
          </mxGeometry>
        </mxCell>
        <mxCell id="S4i9Vi7lNQ9c3gx2z7o1-29" value="" style="shape=partialRectangle;html=1;whiteSpace=wrap;connectable=0;fillColor=none;top=0;left=0;bottom=0;right=0;overflow=hidden;" parent="S4i9Vi7lNQ9c3gx2z7o1-27" vertex="1">
          <mxGeometry x="44" width="50" height="42" as="geometry">
            <mxRectangle width="50" height="42" as="alternateBounds" />
          </mxGeometry>
        </mxCell>
        <mxCell id="S4i9Vi7lNQ9c3gx2z7o1-30" value="" style="shape=partialRectangle;html=1;whiteSpace=wrap;connectable=0;fillColor=none;top=0;left=0;bottom=0;right=0;overflow=hidden;pointerEvents=1;" parent="S4i9Vi7lNQ9c3gx2z7o1-27" vertex="1">
          <mxGeometry x="94" width="38" height="42" as="geometry">
            <mxRectangle width="38" height="42" as="alternateBounds" />
          </mxGeometry>
        </mxCell>
        <mxCell id="S4i9Vi7lNQ9c3gx2z7o1-47" style="shape=partialRectangle;html=1;whiteSpace=wrap;connectable=0;fillColor=none;top=0;left=0;bottom=0;right=0;overflow=hidden;pointerEvents=1;" parent="S4i9Vi7lNQ9c3gx2z7o1-27" vertex="1">
          <mxGeometry x="132" width="44" height="42" as="geometry">
            <mxRectangle width="44" height="42" as="alternateBounds" />
          </mxGeometry>
        </mxCell>
        <mxCell id="S4i9Vi7lNQ9c3gx2z7o1-50" style="shape=partialRectangle;html=1;whiteSpace=wrap;connectable=0;fillColor=none;top=0;left=0;bottom=0;right=0;overflow=hidden;pointerEvents=1;" parent="S4i9Vi7lNQ9c3gx2z7o1-27" vertex="1">
          <mxGeometry x="176" width="44" height="42" as="geometry">
            <mxRectangle width="44" height="42" as="alternateBounds" />
          </mxGeometry>
        </mxCell>
        <mxCell id="odp_P45Up9T9f4CFmMQK-9" style="edgeStyle=orthogonalEdgeStyle;rounded=0;orthogonalLoop=1;jettySize=auto;html=1;exitX=0.5;exitY=1;exitDx=0;exitDy=0;entryX=0.5;entryY=0;entryDx=0;entryDy=0;entryPerimeter=0;" parent="1" source="S4i9Vi7lNQ9c3gx2z7o1-53" target="odp_P45Up9T9f4CFmMQK-8" edge="1">
          <mxGeometry relative="1" as="geometry" />
        </mxCell>
        <mxCell id="S4i9Vi7lNQ9c3gx2z7o1-53" value="Finish Workout" style="rounded=0;whiteSpace=wrap;html=1;" parent="1" vertex="1">
          <mxGeometry x="1510" y="240" width="80" height="30" as="geometry" />
        </mxCell>
        <mxCell id="S4i9Vi7lNQ9c3gx2z7o1-64" value="" style="line;strokeWidth=2;html=1;" parent="1" vertex="1">
          <mxGeometry x="1360" y="-8.75" width="240" height="10" as="geometry" />
        </mxCell>
        <mxCell id="S4i9Vi7lNQ9c3gx2z7o1-70" style="edgeStyle=orthogonalEdgeStyle;rounded=0;orthogonalLoop=1;jettySize=auto;html=1;exitX=1;exitY=0.5;exitDx=0;exitDy=0;entryX=0;entryY=0.5;entryDx=0;entryDy=0;" parent="1" source="9Sg-FpnQoyW8FFDNCrjP-55" target="S4i9Vi7lNQ9c3gx2z7o1-16" edge="1">
          <mxGeometry relative="1" as="geometry">
            <mxPoint x="650" y="-111" as="targetPoint" />
          </mxGeometry>
        </mxCell>
        <mxCell id="S4i9Vi7lNQ9c3gx2z7o1-99" value="" style="rounded=0;whiteSpace=wrap;html=1;fontStyle=1" parent="1" vertex="1">
          <mxGeometry x="1345" y="514" width="240" height="336.25" as="geometry" />
        </mxCell>
        <mxCell id="S4i9Vi7lNQ9c3gx2z7o1-100" value="[Workout title] - [Date]" style="text;html=1;strokeColor=none;fillColor=none;align=center;verticalAlign=middle;whiteSpace=wrap;rounded=0;" parent="1" vertex="1">
          <mxGeometry x="1355" y="525.25" width="210" height="30" as="geometry" />
        </mxCell>
        <mxCell id="S4i9Vi7lNQ9c3gx2z7o1-101" value="" style="shape=table;html=1;whiteSpace=wrap;startSize=0;container=1;collapsible=0;childLayout=tableLayout;" parent="1" vertex="1">
          <mxGeometry x="1355" y="585.25" width="220" height="195" as="geometry" />
        </mxCell>
        <mxCell id="S4i9Vi7lNQ9c3gx2z7o1-102" value="" style="shape=tableRow;horizontal=0;startSize=0;swimlaneHead=0;swimlaneBody=0;top=0;left=0;bottom=0;right=0;collapsible=0;dropTarget=0;fillColor=none;points=[[0,0.5],[1,0.5]];portConstraint=eastwest;" parent="S4i9Vi7lNQ9c3gx2z7o1-101" vertex="1">
          <mxGeometry width="220" height="68" as="geometry" />
        </mxCell>
        <mxCell id="S4i9Vi7lNQ9c3gx2z7o1-103" value="Workout" style="shape=partialRectangle;html=1;whiteSpace=wrap;connectable=0;fillColor=none;top=0;left=0;bottom=0;right=0;overflow=hidden;" parent="S4i9Vi7lNQ9c3gx2z7o1-102" vertex="1">
          <mxGeometry width="44" height="68" as="geometry">
            <mxRectangle width="44" height="68" as="alternateBounds" />
          </mxGeometry>
        </mxCell>
        <mxCell id="S4i9Vi7lNQ9c3gx2z7o1-104" value="Sets&lt;span style=&quot;white-space: pre;&quot;&gt;&lt;br&gt;&lt;/span&gt;" style="shape=partialRectangle;html=1;whiteSpace=wrap;connectable=0;fillColor=none;top=0;left=0;bottom=0;right=0;overflow=hidden;" parent="S4i9Vi7lNQ9c3gx2z7o1-102" vertex="1">
          <mxGeometry x="44" width="50" height="68" as="geometry">
            <mxRectangle width="50" height="68" as="alternateBounds" />
          </mxGeometry>
        </mxCell>
        <mxCell id="S4i9Vi7lNQ9c3gx2z7o1-105" value="Reps" style="shape=partialRectangle;html=1;whiteSpace=wrap;connectable=0;fillColor=none;top=0;left=0;bottom=0;right=0;overflow=hidden;" parent="S4i9Vi7lNQ9c3gx2z7o1-102" vertex="1">
          <mxGeometry x="94" width="38" height="68" as="geometry">
            <mxRectangle width="38" height="68" as="alternateBounds" />
          </mxGeometry>
        </mxCell>
        <mxCell id="S4i9Vi7lNQ9c3gx2z7o1-106" value="Weight" style="shape=partialRectangle;html=1;whiteSpace=wrap;connectable=0;fillColor=none;top=0;left=0;bottom=0;right=0;overflow=hidden;" parent="S4i9Vi7lNQ9c3gx2z7o1-102" vertex="1">
          <mxGeometry x="132" width="44" height="68" as="geometry">
            <mxRectangle width="44" height="68" as="alternateBounds" />
          </mxGeometry>
        </mxCell>
        <mxCell id="S4i9Vi7lNQ9c3gx2z7o1-107" value="Any comments" style="shape=partialRectangle;html=1;whiteSpace=wrap;connectable=0;fillColor=none;top=0;left=0;bottom=0;right=0;overflow=hidden;" parent="S4i9Vi7lNQ9c3gx2z7o1-102" vertex="1">
          <mxGeometry x="176" width="44" height="68" as="geometry">
            <mxRectangle width="44" height="68" as="alternateBounds" />
          </mxGeometry>
        </mxCell>
        <mxCell id="S4i9Vi7lNQ9c3gx2z7o1-108" value="" style="shape=tableRow;horizontal=0;startSize=0;swimlaneHead=0;swimlaneBody=0;top=0;left=0;bottom=0;right=0;collapsible=0;dropTarget=0;fillColor=none;points=[[0,0.5],[1,0.5]];portConstraint=eastwest;" parent="S4i9Vi7lNQ9c3gx2z7o1-101" vertex="1">
          <mxGeometry y="68" width="220" height="59" as="geometry" />
        </mxCell>
        <mxCell id="S4i9Vi7lNQ9c3gx2z7o1-109" value="" style="shape=partialRectangle;html=1;whiteSpace=wrap;connectable=0;fillColor=none;top=0;left=0;bottom=0;right=0;overflow=hidden;" parent="S4i9Vi7lNQ9c3gx2z7o1-108" vertex="1">
          <mxGeometry width="44" height="59" as="geometry">
            <mxRectangle width="44" height="59" as="alternateBounds" />
          </mxGeometry>
        </mxCell>
        <mxCell id="S4i9Vi7lNQ9c3gx2z7o1-110" value="" style="shape=partialRectangle;html=1;whiteSpace=wrap;connectable=0;fillColor=none;top=0;left=0;bottom=0;right=0;overflow=hidden;" parent="S4i9Vi7lNQ9c3gx2z7o1-108" vertex="1">
          <mxGeometry x="44" width="50" height="59" as="geometry">
            <mxRectangle width="50" height="59" as="alternateBounds" />
          </mxGeometry>
        </mxCell>
        <mxCell id="S4i9Vi7lNQ9c3gx2z7o1-111" value="" style="shape=partialRectangle;html=1;whiteSpace=wrap;connectable=0;fillColor=none;top=0;left=0;bottom=0;right=0;overflow=hidden;" parent="S4i9Vi7lNQ9c3gx2z7o1-108" vertex="1">
          <mxGeometry x="94" width="38" height="59" as="geometry">
            <mxRectangle width="38" height="59" as="alternateBounds" />
          </mxGeometry>
        </mxCell>
        <mxCell id="S4i9Vi7lNQ9c3gx2z7o1-112" style="shape=partialRectangle;html=1;whiteSpace=wrap;connectable=0;fillColor=none;top=0;left=0;bottom=0;right=0;overflow=hidden;" parent="S4i9Vi7lNQ9c3gx2z7o1-108" vertex="1">
          <mxGeometry x="132" width="44" height="59" as="geometry">
            <mxRectangle width="44" height="59" as="alternateBounds" />
          </mxGeometry>
        </mxCell>
        <mxCell id="S4i9Vi7lNQ9c3gx2z7o1-113" style="shape=partialRectangle;html=1;whiteSpace=wrap;connectable=0;fillColor=none;top=0;left=0;bottom=0;right=0;overflow=hidden;" parent="S4i9Vi7lNQ9c3gx2z7o1-108" vertex="1">
          <mxGeometry x="176" width="44" height="59" as="geometry">
            <mxRectangle width="44" height="59" as="alternateBounds" />
          </mxGeometry>
        </mxCell>
        <mxCell id="S4i9Vi7lNQ9c3gx2z7o1-114" value="" style="shape=tableRow;horizontal=0;startSize=0;swimlaneHead=0;swimlaneBody=0;top=0;left=0;bottom=0;right=0;collapsible=0;dropTarget=0;fillColor=none;points=[[0,0.5],[1,0.5]];portConstraint=eastwest;" parent="S4i9Vi7lNQ9c3gx2z7o1-101" vertex="1">
          <mxGeometry y="127" width="220" height="68" as="geometry" />
        </mxCell>
        <mxCell id="S4i9Vi7lNQ9c3gx2z7o1-115" value="" style="shape=partialRectangle;html=1;whiteSpace=wrap;connectable=0;fillColor=none;top=0;left=0;bottom=0;right=0;overflow=hidden;" parent="S4i9Vi7lNQ9c3gx2z7o1-114" vertex="1">
          <mxGeometry width="44" height="68" as="geometry">
            <mxRectangle width="44" height="68" as="alternateBounds" />
          </mxGeometry>
        </mxCell>
        <mxCell id="S4i9Vi7lNQ9c3gx2z7o1-116" value="" style="shape=partialRectangle;html=1;whiteSpace=wrap;connectable=0;fillColor=none;top=0;left=0;bottom=0;right=0;overflow=hidden;" parent="S4i9Vi7lNQ9c3gx2z7o1-114" vertex="1">
          <mxGeometry x="44" width="50" height="68" as="geometry">
            <mxRectangle width="50" height="68" as="alternateBounds" />
          </mxGeometry>
        </mxCell>
        <mxCell id="S4i9Vi7lNQ9c3gx2z7o1-117" value="" style="shape=partialRectangle;html=1;whiteSpace=wrap;connectable=0;fillColor=none;top=0;left=0;bottom=0;right=0;overflow=hidden;pointerEvents=1;" parent="S4i9Vi7lNQ9c3gx2z7o1-114" vertex="1">
          <mxGeometry x="94" width="38" height="68" as="geometry">
            <mxRectangle width="38" height="68" as="alternateBounds" />
          </mxGeometry>
        </mxCell>
        <mxCell id="S4i9Vi7lNQ9c3gx2z7o1-118" style="shape=partialRectangle;html=1;whiteSpace=wrap;connectable=0;fillColor=none;top=0;left=0;bottom=0;right=0;overflow=hidden;pointerEvents=1;" parent="S4i9Vi7lNQ9c3gx2z7o1-114" vertex="1">
          <mxGeometry x="132" width="44" height="68" as="geometry">
            <mxRectangle width="44" height="68" as="alternateBounds" />
          </mxGeometry>
        </mxCell>
        <mxCell id="S4i9Vi7lNQ9c3gx2z7o1-119" style="shape=partialRectangle;html=1;whiteSpace=wrap;connectable=0;fillColor=none;top=0;left=0;bottom=0;right=0;overflow=hidden;pointerEvents=1;" parent="S4i9Vi7lNQ9c3gx2z7o1-114" vertex="1">
          <mxGeometry x="176" width="44" height="68" as="geometry">
            <mxRectangle width="44" height="68" as="alternateBounds" />
          </mxGeometry>
        </mxCell>
        <mxCell id="S4i9Vi7lNQ9c3gx2z7o1-121" value="" style="line;strokeWidth=2;html=1;" parent="1" vertex="1">
          <mxGeometry x="1345" y="555.25" width="240" height="10" as="geometry" />
        </mxCell>
        <mxCell id="S4i9Vi7lNQ9c3gx2z7o1-136" value="" style="rounded=0;whiteSpace=wrap;html=1;fontColor=#000000;" parent="1" vertex="1">
          <mxGeometry x="710" y="-80" width="200" height="340" as="geometry" />
        </mxCell>
        <mxCell id="S4i9Vi7lNQ9c3gx2z7o1-147" style="edgeStyle=orthogonalEdgeStyle;rounded=0;orthogonalLoop=1;jettySize=auto;html=1;exitX=0;exitY=0.5;exitDx=0;exitDy=0;entryX=0.634;entryY=1.006;entryDx=0;entryDy=0;fontColor=#000000;entryPerimeter=0;" parent="1" source="9Sg-FpnQoyW8FFDNCrjP-58" target="WgYySzokD8t3va2fA1Zr-25" edge="1">
          <mxGeometry relative="1" as="geometry">
            <mxPoint x="260" y="160" as="targetPoint" />
          </mxGeometry>
        </mxCell>
        <mxCell id="S4i9Vi7lNQ9c3gx2z7o1-152" value="User Profile" style="text;html=1;strokeColor=none;fillColor=none;align=center;verticalAlign=middle;whiteSpace=wrap;rounded=0;fontColor=#000000;" parent="1" vertex="1">
          <mxGeometry x="740" y="-70" width="140" height="30" as="geometry" />
        </mxCell>
        <mxCell id="S4i9Vi7lNQ9c3gx2z7o1-132" value="&lt;span style=&quot;caret-color: rgba(0, 0, 0, 0); color: rgba(0, 0, 0, 0); font-family: monospace; font-size: 0px; text-align: start; background-color: rgb(248, 249, 250);&quot;&gt;%3CmxGraphModel%3E%3Croot%3E%3CmxCell%20id%3D%220%22%2F%3E%3CmxCell%20id%3D%221%22%20parent%3D%220%22%2F%3E%3CmxCell%20id%3D%222%22%20value%3D%22Save%22%20style%3D%22rounded%3D0%3BwhiteSpace%3Dwrap%3Bhtml%3D1%3BfontColor%3D%23000000%3B%22%20vertex%3D%221%22%20parent%3D%221%22%3E%3CmxGeometry%20x%3D%22320%22%20y%3D%22-93.75%22%20width%3D%22100%22%20height%3D%2223.75%22%20as%3D%22geometry%22%2F%3E%3C%2FmxCell%3E%3C%2Froot%3E%3C%2FmxGraphModel%3E&lt;/span&gt;" style="line;strokeWidth=2;html=1;" parent="1" vertex="1">
          <mxGeometry x="710" y="-50" width="200" height="10" as="geometry" />
        </mxCell>
        <mxCell id="S4i9Vi7lNQ9c3gx2z7o1-153" value="Body Weight" style="rounded=0;whiteSpace=wrap;html=1;fontColor=#000000;" parent="1" vertex="1">
          <mxGeometry x="750" y="-10" width="120" height="20" as="geometry" />
        </mxCell>
        <mxCell id="S4i9Vi7lNQ9c3gx2z7o1-154" value="Max Bench Press" style="rounded=0;whiteSpace=wrap;html=1;fontColor=#000000;" parent="1" vertex="1">
          <mxGeometry x="750" y="21.25" width="120" height="20" as="geometry" />
        </mxCell>
        <mxCell id="S4i9Vi7lNQ9c3gx2z7o1-155" value="Max Squat" style="rounded=0;whiteSpace=wrap;html=1;fontColor=#000000;" parent="1" vertex="1">
          <mxGeometry x="750" y="50" width="120" height="20" as="geometry" />
        </mxCell>
        <mxCell id="S4i9Vi7lNQ9c3gx2z7o1-156" value="Gender&amp;nbsp;" style="rounded=0;whiteSpace=wrap;html=1;fontColor=#000000;" parent="1" vertex="1">
          <mxGeometry x="750" y="-40" width="120" height="20" as="geometry" />
        </mxCell>
        <mxCell id="S4i9Vi7lNQ9c3gx2z7o1-157" value="Max Overhead Press" style="rounded=0;whiteSpace=wrap;html=1;fontColor=#000000;" parent="1" vertex="1">
          <mxGeometry x="750" y="108.13" width="120" height="20" as="geometry" />
        </mxCell>
        <mxCell id="S4i9Vi7lNQ9c3gx2z7o1-158" value="Max Dead Lift" style="rounded=0;whiteSpace=wrap;html=1;fontColor=#000000;" parent="1" vertex="1">
          <mxGeometry x="750" y="80" width="120" height="20" as="geometry" />
        </mxCell>
        <mxCell id="WgYySzokD8t3va2fA1Zr-122" style="edgeStyle=orthogonalEdgeStyle;rounded=0;orthogonalLoop=1;jettySize=auto;html=1;" edge="1" parent="1" source="S4i9Vi7lNQ9c3gx2z7o1-161">
          <mxGeometry relative="1" as="geometry">
            <mxPoint x="600" y="320" as="targetPoint" />
          </mxGeometry>
        </mxCell>
        <mxCell id="WgYySzokD8t3va2fA1Zr-131" value="" style="edgeStyle=orthogonalEdgeStyle;rounded=0;orthogonalLoop=1;jettySize=auto;html=1;" edge="1" parent="1" source="S4i9Vi7lNQ9c3gx2z7o1-161" target="WgYySzokD8t3va2fA1Zr-126">
          <mxGeometry relative="1" as="geometry" />
        </mxCell>
        <mxCell id="S4i9Vi7lNQ9c3gx2z7o1-161" value="Back" style="rounded=0;whiteSpace=wrap;html=1;fontColor=#000000;" parent="1" vertex="1">
          <mxGeometry x="740" y="231.88" width="76.25" height="18.75" as="geometry" />
        </mxCell>
        <mxCell id="S4i9Vi7lNQ9c3gx2z7o1-162" value="" style="rounded=0;whiteSpace=wrap;html=1;fontColor=#000000;" parent="1" vertex="1">
          <mxGeometry x="650" y="840" width="170" height="280" as="geometry" />
        </mxCell>
        <mxCell id="S4i9Vi7lNQ9c3gx2z7o1-163" value="1RM Calculator&lt;br&gt;(all numbers in lb)" style="text;html=1;strokeColor=none;fillColor=none;align=center;verticalAlign=middle;whiteSpace=wrap;rounded=0;fontColor=#000000;" parent="1" vertex="1">
          <mxGeometry x="660" y="840" width="140" height="30" as="geometry" />
        </mxCell>
        <mxCell id="S4i9Vi7lNQ9c3gx2z7o1-164" value="&lt;span style=&quot;caret-color: rgba(0, 0, 0, 0); color: rgba(0, 0, 0, 0); font-family: monospace; font-size: 0px; text-align: start; background-color: rgb(248, 249, 250);&quot;&gt;%3CmxGraphModel%3E%3Croot%3E%3CmxCell%20id%3D%220%22%2F%3E%3CmxCell%20id%3D%221%22%20parent%3D%220%22%2F%3E%3CmxCell%20id%3D%222%22%20value%3D%22Save%22%20style%3D%22rounded%3D0%3BwhiteSpace%3Dwrap%3Bhtml%3D1%3BfontColor%3D%23000000%3B%22%20vertex%3D%221%22%20parent%3D%221%22%3E%3CmxGeometry%20x%3D%22320%22%20y%3D%22-93.75%22%20width%3D%22100%22%20height%3D%2223.75%22%20as%3D%22geometry%22%2F%3E%3C%2FmxCell%3E%3C%2Froot%3E%3C%2FmxGraphModel%3E&lt;/span&gt;" style="line;strokeWidth=2;html=1;" parent="1" vertex="1">
          <mxGeometry x="653.75" y="870" width="162.5" height="10" as="geometry" />
        </mxCell>
        <mxCell id="S4i9Vi7lNQ9c3gx2z7o1-165" value="Weight" style="rounded=0;whiteSpace=wrap;html=1;fontColor=#000000;" parent="1" vertex="1">
          <mxGeometry x="670" y="890" width="120" height="20" as="geometry" />
        </mxCell>
        <mxCell id="S4i9Vi7lNQ9c3gx2z7o1-166" value="Reps" style="rounded=0;whiteSpace=wrap;html=1;fontColor=#000000;" parent="1" vertex="1">
          <mxGeometry x="670" y="920" width="120" height="20" as="geometry" />
        </mxCell>
        <mxCell id="S4i9Vi7lNQ9c3gx2z7o1-169" value="[OUTPUT 1RM]" style="rounded=0;whiteSpace=wrap;html=1;fontColor=#000000;" parent="1" vertex="1">
          <mxGeometry x="670" y="956.25" width="120" height="20" as="geometry" />
        </mxCell>
        <mxCell id="ExzkwNlLhsFwJy-BWVH2-3" style="edgeStyle=orthogonalEdgeStyle;rounded=0;orthogonalLoop=1;jettySize=auto;html=1;exitX=0;exitY=0.25;exitDx=0;exitDy=0;entryX=0;entryY=1;entryDx=0;entryDy=0;" parent="1" source="S4i9Vi7lNQ9c3gx2z7o1-171" target="9Sg-FpnQoyW8FFDNCrjP-53" edge="1">
          <mxGeometry relative="1" as="geometry" />
        </mxCell>
        <mxCell id="S4i9Vi7lNQ9c3gx2z7o1-171" value="Back" style="rounded=0;whiteSpace=wrap;html=1;fontColor=#000000;" parent="1" vertex="1">
          <mxGeometry x="680" y="1060" width="100" height="20" as="geometry" />
        </mxCell>
        <mxCell id="S4i9Vi7lNQ9c3gx2z7o1-174" style="edgeStyle=orthogonalEdgeStyle;rounded=0;orthogonalLoop=1;jettySize=auto;html=1;exitX=1;exitY=0.5;exitDx=0;exitDy=0;fontColor=#000000;" parent="1" source="S4i9Vi7lNQ9c3gx2z7o1-172" target="S4i9Vi7lNQ9c3gx2z7o1-163" edge="1">
          <mxGeometry relative="1" as="geometry" />
        </mxCell>
        <mxCell id="S4i9Vi7lNQ9c3gx2z7o1-178" value="" style="whiteSpace=wrap;html=1;aspect=fixed;fontColor=#000000;" parent="1" vertex="1">
          <mxGeometry x="350" y="-410" width="200" height="200" as="geometry" />
        </mxCell>
        <mxCell id="S4i9Vi7lNQ9c3gx2z7o1-180" value="Technology" style="text;strokeColor=none;fillColor=none;html=1;fontSize=24;fontStyle=1;verticalAlign=middle;align=center;fontColor=#000000;" parent="1" vertex="1">
          <mxGeometry x="400" y="-400" width="100" height="40" as="geometry" />
        </mxCell>
        <mxCell id="S4i9Vi7lNQ9c3gx2z7o1-181" value="" style="line;strokeWidth=4;html=1;perimeter=backbonePerimeter;points=[];outlineConnect=0;fontColor=#000000;" parent="1" vertex="1">
          <mxGeometry x="350" y="-350" width="200" height="10" as="geometry" />
        </mxCell>
        <mxCell id="S4i9Vi7lNQ9c3gx2z7o1-182" value="Source Control : Git" style="text;html=1;strokeColor=none;fillColor=none;align=center;verticalAlign=middle;whiteSpace=wrap;rounded=0;fontColor=#000000;" parent="1" vertex="1">
          <mxGeometry x="385" y="-250" width="150" height="30" as="geometry" />
        </mxCell>
        <mxCell id="S4i9Vi7lNQ9c3gx2z7o1-183" value="Backend : CloudKit" style="text;html=1;strokeColor=none;fillColor=none;align=center;verticalAlign=middle;whiteSpace=wrap;rounded=0;fontColor=#000000;" parent="1" vertex="1">
          <mxGeometry x="381.25" y="-310" width="150" height="30" as="geometry" />
        </mxCell>
        <mxCell id="S4i9Vi7lNQ9c3gx2z7o1-184" value="Language : Swift" style="text;html=1;strokeColor=none;fillColor=none;align=center;verticalAlign=middle;whiteSpace=wrap;rounded=0;fontColor=#000000;" parent="1" vertex="1">
          <mxGeometry x="375" y="-340" width="150" height="30" as="geometry" />
        </mxCell>
        <mxCell id="S4i9Vi7lNQ9c3gx2z7o1-185" style="edgeStyle=orthogonalEdgeStyle;rounded=0;orthogonalLoop=1;jettySize=auto;html=1;exitX=0.5;exitY=1;exitDx=0;exitDy=0;fontColor=#000000;" parent="1" source="S4i9Vi7lNQ9c3gx2z7o1-178" target="S4i9Vi7lNQ9c3gx2z7o1-178" edge="1">
          <mxGeometry relative="1" as="geometry" />
        </mxCell>
        <mxCell id="odp_P45Up9T9f4CFmMQK-1" value="Authentication : Firebase Auth &amp;amp; Apple ID" style="text;html=1;strokeColor=none;fillColor=none;align=center;verticalAlign=middle;whiteSpace=wrap;rounded=0;fontColor=#000000;" parent="1" vertex="1">
          <mxGeometry x="355" y="-280" width="190" height="30" as="geometry" />
        </mxCell>
        <mxCell id="odp_P45Up9T9f4CFmMQK-4" style="edgeStyle=orthogonalEdgeStyle;rounded=0;orthogonalLoop=1;jettySize=auto;html=1;exitX=0.875;exitY=0.5;exitDx=0;exitDy=0;exitPerimeter=0;" parent="1" source="odp_P45Up9T9f4CFmMQK-2" target="9Sg-FpnQoyW8FFDNCrjP-53" edge="1">
          <mxGeometry relative="1" as="geometry" />
        </mxCell>
        <mxCell id="odp_P45Up9T9f4CFmMQK-3" style="edgeStyle=orthogonalEdgeStyle;rounded=0;orthogonalLoop=1;jettySize=auto;html=1;exitX=1;exitY=0.5;exitDx=0;exitDy=0;entryX=0.55;entryY=0.95;entryDx=0;entryDy=0;entryPerimeter=0;" parent="1" source="9Sg-FpnQoyW8FFDNCrjP-51" target="odp_P45Up9T9f4CFmMQK-2" edge="1">
          <mxGeometry relative="1" as="geometry" />
        </mxCell>
        <mxCell id="odp_P45Up9T9f4CFmMQK-10" style="edgeStyle=orthogonalEdgeStyle;rounded=0;orthogonalLoop=1;jettySize=auto;html=1;exitX=0;exitY=0.5;exitDx=0;exitDy=0;exitPerimeter=0;entryX=0.806;entryY=-0.001;entryDx=0;entryDy=0;entryPerimeter=0;" parent="1" source="odp_P45Up9T9f4CFmMQK-8" target="9Sg-FpnQoyW8FFDNCrjP-53" edge="1">
          <mxGeometry relative="1" as="geometry" />
        </mxCell>
        <mxCell id="odp_P45Up9T9f4CFmMQK-8" value="Save to CloudKit&amp;nbsp;" style="shape=cylinder3;whiteSpace=wrap;html=1;boundedLbl=1;backgroundOutline=1;size=15;" parent="1" vertex="1">
          <mxGeometry x="1515" y="370" width="110" height="90" as="geometry" />
        </mxCell>
        <mxCell id="WgYySzokD8t3va2fA1Zr-4" style="edgeStyle=orthogonalEdgeStyle;rounded=0;orthogonalLoop=1;jettySize=auto;html=1;" edge="1" parent="1" source="odp_P45Up9T9f4CFmMQK-17" target="S4i9Vi7lNQ9c3gx2z7o1-99">
          <mxGeometry relative="1" as="geometry" />
        </mxCell>
        <mxCell id="odp_P45Up9T9f4CFmMQK-19" style="edgeStyle=orthogonalEdgeStyle;rounded=0;orthogonalLoop=1;jettySize=auto;html=1;exitX=1;exitY=0.5;exitDx=0;exitDy=0;" parent="1" source="9Sg-FpnQoyW8FFDNCrjP-59" target="odp_P45Up9T9f4CFmMQK-17" edge="1">
          <mxGeometry relative="1" as="geometry" />
        </mxCell>
        <mxCell id="odp_P45Up9T9f4CFmMQK-20" value="Authentication Service" style="swimlane;fillColor=#dae8fc;strokeColor=#6c8ebf;" parent="1" vertex="1">
          <mxGeometry x="-20" y="231.25" width="200" height="200" as="geometry" />
        </mxCell>
        <mxCell id="odp_P45Up9T9f4CFmMQK-2" value="Authenticate user with Firebase Auth or Apple ID" style="ellipse;shape=cloud;whiteSpace=wrap;html=1;" parent="odp_P45Up9T9f4CFmMQK-20" vertex="1">
          <mxGeometry y="50.25" width="190" height="139.75" as="geometry" />
        </mxCell>
        <mxCell id="odp_P45Up9T9f4CFmMQK-22" value="Database Service" style="swimlane;fillColor=#dae8fc;strokeColor=#6c8ebf;" parent="1" vertex="1">
          <mxGeometry x="1490" y="320" width="160" height="153.75" as="geometry" />
        </mxCell>
        <mxCell id="odp_P45Up9T9f4CFmMQK-24" value="Database Service" style="swimlane;fillColor=#dae8fc;strokeColor=#6c8ebf;" parent="1" vertex="1">
          <mxGeometry x="1130" y="560" width="160" height="153.75" as="geometry" />
        </mxCell>
        <mxCell id="odp_P45Up9T9f4CFmMQK-17" value="Load from CloudKit" style="shape=cylinder3;whiteSpace=wrap;html=1;boundedLbl=1;backgroundOutline=1;size=15;" parent="odp_P45Up9T9f4CFmMQK-24" vertex="1">
          <mxGeometry x="25" y="40" width="110" height="90" as="geometry" />
        </mxCell>
        <mxCell id="WgYySzokD8t3va2fA1Zr-25" value="" style="rounded=0;whiteSpace=wrap;html=1;" vertex="1" parent="1">
          <mxGeometry x="110" y="-150" width="240" height="336.25" as="geometry" />
        </mxCell>
        <mxCell id="WgYySzokD8t3va2fA1Zr-26" value="531 Workout Plan" style="text;html=1;strokeColor=none;fillColor=none;align=center;verticalAlign=middle;whiteSpace=wrap;rounded=0;" vertex="1" parent="1">
          <mxGeometry x="125" y="-140" width="210" height="30" as="geometry" />
        </mxCell>
        <mxCell id="WgYySzokD8t3va2fA1Zr-27" value="" style="line;strokeWidth=2;html=1;" vertex="1" parent="1">
          <mxGeometry x="110" y="-110" width="240" height="10" as="geometry" />
        </mxCell>
        <mxCell id="WgYySzokD8t3va2fA1Zr-34" value="" style="shape=table;html=1;whiteSpace=wrap;startSize=0;container=1;collapsible=0;childLayout=tableLayout;" vertex="1" parent="1">
          <mxGeometry x="120" y="-90" width="220" height="220" as="geometry" />
        </mxCell>
        <mxCell id="WgYySzokD8t3va2fA1Zr-35" value="" style="shape=tableRow;horizontal=0;startSize=0;swimlaneHead=0;swimlaneBody=0;top=0;left=0;bottom=0;right=0;collapsible=0;dropTarget=0;fillColor=none;points=[[0,0.5],[1,0.5]];portConstraint=eastwest;" vertex="1" parent="WgYySzokD8t3va2fA1Zr-34">
          <mxGeometry width="220" height="68" as="geometry" />
        </mxCell>
        <mxCell id="WgYySzokD8t3va2fA1Zr-36" value="Warm up&amp;nbsp;" style="shape=partialRectangle;html=1;whiteSpace=wrap;connectable=0;fillColor=none;top=0;left=0;bottom=0;right=0;overflow=hidden;" vertex="1" parent="WgYySzokD8t3va2fA1Zr-35">
          <mxGeometry width="44" height="68" as="geometry">
            <mxRectangle width="44" height="68" as="alternateBounds" />
          </mxGeometry>
        </mxCell>
        <mxCell id="WgYySzokD8t3va2fA1Zr-37" value="Squat&lt;span style=&quot;white-space: pre;&quot;&gt;&lt;br&gt;&lt;/span&gt;" style="shape=partialRectangle;html=1;whiteSpace=wrap;connectable=0;fillColor=none;top=0;left=0;bottom=0;right=0;overflow=hidden;" vertex="1" parent="WgYySzokD8t3va2fA1Zr-35">
          <mxGeometry x="44" width="50" height="68" as="geometry">
            <mxRectangle width="50" height="68" as="alternateBounds" />
          </mxGeometry>
        </mxCell>
        <mxCell id="WgYySzokD8t3va2fA1Zr-38" value="Bench" style="shape=partialRectangle;html=1;whiteSpace=wrap;connectable=0;fillColor=none;top=0;left=0;bottom=0;right=0;overflow=hidden;" vertex="1" parent="WgYySzokD8t3va2fA1Zr-35">
          <mxGeometry x="94" width="38" height="68" as="geometry">
            <mxRectangle width="38" height="68" as="alternateBounds" />
          </mxGeometry>
        </mxCell>
        <mxCell id="WgYySzokD8t3va2fA1Zr-39" value="Dead Lift" style="shape=partialRectangle;html=1;whiteSpace=wrap;connectable=0;fillColor=none;top=0;left=0;bottom=0;right=0;overflow=hidden;" vertex="1" parent="WgYySzokD8t3va2fA1Zr-35">
          <mxGeometry x="132" width="44" height="68" as="geometry">
            <mxRectangle width="44" height="68" as="alternateBounds" />
          </mxGeometry>
        </mxCell>
        <mxCell id="WgYySzokD8t3va2fA1Zr-40" value="Press" style="shape=partialRectangle;html=1;whiteSpace=wrap;connectable=0;fillColor=none;top=0;left=0;bottom=0;right=0;overflow=hidden;" vertex="1" parent="WgYySzokD8t3va2fA1Zr-35">
          <mxGeometry x="176" width="44" height="68" as="geometry">
            <mxRectangle width="44" height="68" as="alternateBounds" />
          </mxGeometry>
        </mxCell>
        <mxCell id="WgYySzokD8t3va2fA1Zr-41" value="" style="shape=tableRow;horizontal=0;startSize=0;swimlaneHead=0;swimlaneBody=0;top=0;left=0;bottom=0;right=0;collapsible=0;dropTarget=0;fillColor=none;points=[[0,0.5],[1,0.5]];portConstraint=eastwest;" vertex="1" parent="WgYySzokD8t3va2fA1Zr-34">
          <mxGeometry y="68" width="220" height="32" as="geometry" />
        </mxCell>
        <mxCell id="WgYySzokD8t3va2fA1Zr-42" value="Week 1" style="shape=partialRectangle;html=1;whiteSpace=wrap;connectable=0;fillColor=none;top=0;left=0;bottom=0;right=0;overflow=hidden;" vertex="1" parent="WgYySzokD8t3va2fA1Zr-41">
          <mxGeometry width="44" height="32" as="geometry">
            <mxRectangle width="44" height="32" as="alternateBounds" />
          </mxGeometry>
        </mxCell>
        <mxCell id="WgYySzokD8t3va2fA1Zr-43" value="Week 1" style="shape=partialRectangle;html=1;whiteSpace=wrap;connectable=0;fillColor=none;top=0;left=0;bottom=0;right=0;overflow=hidden;" vertex="1" parent="WgYySzokD8t3va2fA1Zr-41">
          <mxGeometry x="44" width="50" height="32" as="geometry">
            <mxRectangle width="50" height="32" as="alternateBounds" />
          </mxGeometry>
        </mxCell>
        <mxCell id="WgYySzokD8t3va2fA1Zr-44" value="Week 1" style="shape=partialRectangle;html=1;whiteSpace=wrap;connectable=0;fillColor=none;top=0;left=0;bottom=0;right=0;overflow=hidden;" vertex="1" parent="WgYySzokD8t3va2fA1Zr-41">
          <mxGeometry x="94" width="38" height="32" as="geometry">
            <mxRectangle width="38" height="32" as="alternateBounds" />
          </mxGeometry>
        </mxCell>
        <mxCell id="WgYySzokD8t3va2fA1Zr-45" value="Week 1" style="shape=partialRectangle;html=1;whiteSpace=wrap;connectable=0;fillColor=none;top=0;left=0;bottom=0;right=0;overflow=hidden;" vertex="1" parent="WgYySzokD8t3va2fA1Zr-41">
          <mxGeometry x="132" width="44" height="32" as="geometry">
            <mxRectangle width="44" height="32" as="alternateBounds" />
          </mxGeometry>
        </mxCell>
        <mxCell id="WgYySzokD8t3va2fA1Zr-46" value="Week 1" style="shape=partialRectangle;html=1;whiteSpace=wrap;connectable=0;fillColor=none;top=0;left=0;bottom=0;right=0;overflow=hidden;" vertex="1" parent="WgYySzokD8t3va2fA1Zr-41">
          <mxGeometry x="176" width="44" height="32" as="geometry">
            <mxRectangle width="44" height="32" as="alternateBounds" />
          </mxGeometry>
        </mxCell>
        <mxCell id="WgYySzokD8t3va2fA1Zr-47" value="" style="shape=tableRow;horizontal=0;startSize=0;swimlaneHead=0;swimlaneBody=0;top=0;left=0;bottom=0;right=0;collapsible=0;dropTarget=0;fillColor=none;points=[[0,0.5],[1,0.5]];portConstraint=eastwest;" vertex="1" parent="WgYySzokD8t3va2fA1Zr-34">
          <mxGeometry y="100" width="220" height="40" as="geometry" />
        </mxCell>
        <mxCell id="WgYySzokD8t3va2fA1Zr-48" value="Week 2" style="shape=partialRectangle;html=1;whiteSpace=wrap;connectable=0;fillColor=none;top=0;left=0;bottom=0;right=0;overflow=hidden;" vertex="1" parent="WgYySzokD8t3va2fA1Zr-47">
          <mxGeometry width="44" height="40" as="geometry">
            <mxRectangle width="44" height="40" as="alternateBounds" />
          </mxGeometry>
        </mxCell>
        <mxCell id="WgYySzokD8t3va2fA1Zr-49" value="Week 2" style="shape=partialRectangle;html=1;whiteSpace=wrap;connectable=0;fillColor=none;top=0;left=0;bottom=0;right=0;overflow=hidden;" vertex="1" parent="WgYySzokD8t3va2fA1Zr-47">
          <mxGeometry x="44" width="50" height="40" as="geometry">
            <mxRectangle width="50" height="40" as="alternateBounds" />
          </mxGeometry>
        </mxCell>
        <mxCell id="WgYySzokD8t3va2fA1Zr-50" value="Week 2" style="shape=partialRectangle;html=1;whiteSpace=wrap;connectable=0;fillColor=none;top=0;left=0;bottom=0;right=0;overflow=hidden;pointerEvents=1;" vertex="1" parent="WgYySzokD8t3va2fA1Zr-47">
          <mxGeometry x="94" width="38" height="40" as="geometry">
            <mxRectangle width="38" height="40" as="alternateBounds" />
          </mxGeometry>
        </mxCell>
        <mxCell id="WgYySzokD8t3va2fA1Zr-51" value="Week 2" style="shape=partialRectangle;html=1;whiteSpace=wrap;connectable=0;fillColor=none;top=0;left=0;bottom=0;right=0;overflow=hidden;pointerEvents=1;" vertex="1" parent="WgYySzokD8t3va2fA1Zr-47">
          <mxGeometry x="132" width="44" height="40" as="geometry">
            <mxRectangle width="44" height="40" as="alternateBounds" />
          </mxGeometry>
        </mxCell>
        <mxCell id="WgYySzokD8t3va2fA1Zr-52" value="Week 2" style="shape=partialRectangle;html=1;whiteSpace=wrap;connectable=0;fillColor=none;top=0;left=0;bottom=0;right=0;overflow=hidden;pointerEvents=1;" vertex="1" parent="WgYySzokD8t3va2fA1Zr-47">
          <mxGeometry x="176" width="44" height="40" as="geometry">
            <mxRectangle width="44" height="40" as="alternateBounds" />
          </mxGeometry>
        </mxCell>
        <mxCell id="WgYySzokD8t3va2fA1Zr-58" value="" style="shape=tableRow;horizontal=0;startSize=0;swimlaneHead=0;swimlaneBody=0;top=0;left=0;bottom=0;right=0;collapsible=0;dropTarget=0;fillColor=none;points=[[0,0.5],[1,0.5]];portConstraint=eastwest;" vertex="1" parent="WgYySzokD8t3va2fA1Zr-34">
          <mxGeometry y="140" width="220" height="40" as="geometry" />
        </mxCell>
        <mxCell id="WgYySzokD8t3va2fA1Zr-59" value="Week 3" style="shape=partialRectangle;html=1;whiteSpace=wrap;connectable=0;fillColor=none;top=0;left=0;bottom=0;right=0;overflow=hidden;" vertex="1" parent="WgYySzokD8t3va2fA1Zr-58">
          <mxGeometry width="44" height="40" as="geometry">
            <mxRectangle width="44" height="40" as="alternateBounds" />
          </mxGeometry>
        </mxCell>
        <mxCell id="WgYySzokD8t3va2fA1Zr-60" value="Week 3" style="shape=partialRectangle;html=1;whiteSpace=wrap;connectable=0;fillColor=none;top=0;left=0;bottom=0;right=0;overflow=hidden;" vertex="1" parent="WgYySzokD8t3va2fA1Zr-58">
          <mxGeometry x="44" width="50" height="40" as="geometry">
            <mxRectangle width="50" height="40" as="alternateBounds" />
          </mxGeometry>
        </mxCell>
        <mxCell id="WgYySzokD8t3va2fA1Zr-61" value="Week 3" style="shape=partialRectangle;html=1;whiteSpace=wrap;connectable=0;fillColor=none;top=0;left=0;bottom=0;right=0;overflow=hidden;pointerEvents=1;" vertex="1" parent="WgYySzokD8t3va2fA1Zr-58">
          <mxGeometry x="94" width="38" height="40" as="geometry">
            <mxRectangle width="38" height="40" as="alternateBounds" />
          </mxGeometry>
        </mxCell>
        <mxCell id="WgYySzokD8t3va2fA1Zr-62" value="Week 3" style="shape=partialRectangle;html=1;whiteSpace=wrap;connectable=0;fillColor=none;top=0;left=0;bottom=0;right=0;overflow=hidden;pointerEvents=1;" vertex="1" parent="WgYySzokD8t3va2fA1Zr-58">
          <mxGeometry x="132" width="44" height="40" as="geometry">
            <mxRectangle width="44" height="40" as="alternateBounds" />
          </mxGeometry>
        </mxCell>
        <mxCell id="WgYySzokD8t3va2fA1Zr-63" value="Week 3" style="shape=partialRectangle;html=1;whiteSpace=wrap;connectable=0;fillColor=none;top=0;left=0;bottom=0;right=0;overflow=hidden;pointerEvents=1;" vertex="1" parent="WgYySzokD8t3va2fA1Zr-58">
          <mxGeometry x="176" width="44" height="40" as="geometry">
            <mxRectangle width="44" height="40" as="alternateBounds" />
          </mxGeometry>
        </mxCell>
        <mxCell id="WgYySzokD8t3va2fA1Zr-89" value="" style="shape=tableRow;horizontal=0;startSize=0;swimlaneHead=0;swimlaneBody=0;top=0;left=0;bottom=0;right=0;collapsible=0;dropTarget=0;fillColor=none;points=[[0,0.5],[1,0.5]];portConstraint=eastwest;" vertex="1" parent="WgYySzokD8t3va2fA1Zr-34">
          <mxGeometry y="180" width="220" height="40" as="geometry" />
        </mxCell>
        <mxCell id="WgYySzokD8t3va2fA1Zr-90" value="Week 4" style="shape=partialRectangle;html=1;whiteSpace=wrap;connectable=0;fillColor=none;top=0;left=0;bottom=0;right=0;overflow=hidden;" vertex="1" parent="WgYySzokD8t3va2fA1Zr-89">
          <mxGeometry width="44" height="40" as="geometry">
            <mxRectangle width="44" height="40" as="alternateBounds" />
          </mxGeometry>
        </mxCell>
        <mxCell id="WgYySzokD8t3va2fA1Zr-91" value="Week 4" style="shape=partialRectangle;html=1;whiteSpace=wrap;connectable=0;fillColor=none;top=0;left=0;bottom=0;right=0;overflow=hidden;" vertex="1" parent="WgYySzokD8t3va2fA1Zr-89">
          <mxGeometry x="44" width="50" height="40" as="geometry">
            <mxRectangle width="50" height="40" as="alternateBounds" />
          </mxGeometry>
        </mxCell>
        <mxCell id="WgYySzokD8t3va2fA1Zr-92" value="Week 4" style="shape=partialRectangle;html=1;whiteSpace=wrap;connectable=0;fillColor=none;top=0;left=0;bottom=0;right=0;overflow=hidden;pointerEvents=1;" vertex="1" parent="WgYySzokD8t3va2fA1Zr-89">
          <mxGeometry x="94" width="38" height="40" as="geometry">
            <mxRectangle width="38" height="40" as="alternateBounds" />
          </mxGeometry>
        </mxCell>
        <mxCell id="WgYySzokD8t3va2fA1Zr-93" value="Week 4" style="shape=partialRectangle;html=1;whiteSpace=wrap;connectable=0;fillColor=none;top=0;left=0;bottom=0;right=0;overflow=hidden;pointerEvents=1;" vertex="1" parent="WgYySzokD8t3va2fA1Zr-89">
          <mxGeometry x="132" width="44" height="40" as="geometry">
            <mxRectangle width="44" height="40" as="alternateBounds" />
          </mxGeometry>
        </mxCell>
        <mxCell id="WgYySzokD8t3va2fA1Zr-94" value="Week 4" style="shape=partialRectangle;html=1;whiteSpace=wrap;connectable=0;fillColor=none;top=0;left=0;bottom=0;right=0;overflow=hidden;pointerEvents=1;" vertex="1" parent="WgYySzokD8t3va2fA1Zr-89">
          <mxGeometry x="176" width="44" height="40" as="geometry">
            <mxRectangle width="44" height="40" as="alternateBounds" />
          </mxGeometry>
        </mxCell>
        <mxCell id="WgYySzokD8t3va2fA1Zr-97" style="edgeStyle=orthogonalEdgeStyle;rounded=0;orthogonalLoop=1;jettySize=auto;html=1;" edge="1" parent="1" source="WgYySzokD8t3va2fA1Zr-96">
          <mxGeometry relative="1" as="geometry">
            <mxPoint x="1420" y="420" as="targetPoint" />
          </mxGeometry>
        </mxCell>
        <mxCell id="WgYySzokD8t3va2fA1Zr-96" value="Cancel" style="rounded=0;whiteSpace=wrap;html=1;" vertex="1" parent="1">
          <mxGeometry x="1380" y="240" width="80" height="30" as="geometry" />
        </mxCell>
        <mxCell id="WgYySzokD8t3va2fA1Zr-99" style="edgeStyle=orthogonalEdgeStyle;rounded=0;orthogonalLoop=1;jettySize=auto;html=1;" edge="1" parent="1" source="WgYySzokD8t3va2fA1Zr-98" target="9Sg-FpnQoyW8FFDNCrjP-53">
          <mxGeometry relative="1" as="geometry">
            <mxPoint x="1090" y="505.2" as="targetPoint" />
          </mxGeometry>
        </mxCell>
        <mxCell id="WgYySzokD8t3va2fA1Zr-98" value="Back" style="rounded=0;whiteSpace=wrap;html=1;" vertex="1" parent="1">
          <mxGeometry x="1430" y="800" width="80" height="30" as="geometry" />
        </mxCell>
        <mxCell id="WgYySzokD8t3va2fA1Zr-101" style="edgeStyle=orthogonalEdgeStyle;rounded=0;orthogonalLoop=1;jettySize=auto;html=1;" edge="1" parent="1" source="WgYySzokD8t3va2fA1Zr-100" target="9Sg-FpnQoyW8FFDNCrjP-54">
          <mxGeometry relative="1" as="geometry" />
        </mxCell>
        <mxCell id="WgYySzokD8t3va2fA1Zr-100" value="Back" style="rounded=0;whiteSpace=wrap;html=1;" vertex="1" parent="1">
          <mxGeometry x="193.75" y="141.75" width="80" height="30" as="geometry" />
        </mxCell>
        <mxCell id="WgYySzokD8t3va2fA1Zr-102" style="edgeStyle=orthogonalEdgeStyle;rounded=0;orthogonalLoop=1;jettySize=auto;html=1;exitX=1;exitY=0.5;exitDx=0;exitDy=0;entryX=0.5;entryY=0;entryDx=0;entryDy=0;" edge="1" parent="1" source="9Sg-FpnQoyW8FFDNCrjP-5" target="9Sg-FpnQoyW8FFDNCrjP-28">
          <mxGeometry relative="1" as="geometry" />
        </mxCell>
        <mxCell id="WgYySzokD8t3va2fA1Zr-104" value="asdad" style="group" vertex="1" connectable="0" parent="1">
          <mxGeometry x="-162" y="820" width="162.5" height="270" as="geometry" />
        </mxCell>
        <mxCell id="WgYySzokD8t3va2fA1Zr-105" value="" style="rounded=0;whiteSpace=wrap;html=1;" vertex="1" parent="WgYySzokD8t3va2fA1Zr-104">
          <mxGeometry width="160" height="270" as="geometry" />
        </mxCell>
        <mxCell id="WgYySzokD8t3va2fA1Zr-106" value="New User Profile Setup" style="text;html=1;strokeColor=none;fillColor=none;align=center;verticalAlign=middle;whiteSpace=wrap;rounded=0;" vertex="1" parent="WgYySzokD8t3va2fA1Zr-104">
          <mxGeometry x="41.25" width="80" height="30" as="geometry" />
        </mxCell>
        <mxCell id="WgYySzokD8t3va2fA1Zr-107" value="Gender&amp;nbsp;" style="rounded=0;whiteSpace=wrap;html=1;" vertex="1" parent="WgYySzokD8t3va2fA1Zr-104">
          <mxGeometry x="20" y="50" width="120" height="20" as="geometry" />
        </mxCell>
        <mxCell id="WgYySzokD8t3va2fA1Zr-108" value="Body Weight&amp;nbsp;" style="rounded=0;whiteSpace=wrap;html=1;" vertex="1" parent="WgYySzokD8t3va2fA1Zr-104">
          <mxGeometry x="20" y="80" width="120" height="20" as="geometry" />
        </mxCell>
        <mxCell id="WgYySzokD8t3va2fA1Zr-109" value="Max Bench Press" style="rounded=0;whiteSpace=wrap;html=1;" vertex="1" parent="WgYySzokD8t3va2fA1Zr-104">
          <mxGeometry x="20" y="110" width="120" height="20" as="geometry" />
        </mxCell>
        <mxCell id="WgYySzokD8t3va2fA1Zr-110" value="Max Squat" style="rounded=0;whiteSpace=wrap;html=1;" vertex="1" parent="WgYySzokD8t3va2fA1Zr-104">
          <mxGeometry x="20" y="140" width="120" height="20" as="geometry" />
        </mxCell>
        <mxCell id="WgYySzokD8t3va2fA1Zr-111" value="Max Deadlift" style="rounded=0;whiteSpace=wrap;html=1;" vertex="1" parent="WgYySzokD8t3va2fA1Zr-104">
          <mxGeometry x="20" y="170" width="120" height="20" as="geometry" />
        </mxCell>
        <mxCell id="WgYySzokD8t3va2fA1Zr-112" value="Max Overhead Press" style="rounded=0;whiteSpace=wrap;html=1;" vertex="1" parent="WgYySzokD8t3va2fA1Zr-104">
          <mxGeometry x="21.25" y="200" width="120" height="20" as="geometry" />
        </mxCell>
        <mxCell id="WgYySzokD8t3va2fA1Zr-113" value="" style="line;strokeWidth=2;html=1;" vertex="1" parent="WgYySzokD8t3va2fA1Zr-104">
          <mxGeometry y="30" width="162.5" height="10" as="geometry" />
        </mxCell>
        <mxCell id="WgYySzokD8t3va2fA1Zr-118" value="Create Profile" style="rounded=0;whiteSpace=wrap;html=1;" vertex="1" parent="WgYySzokD8t3va2fA1Zr-104">
          <mxGeometry x="21.25" y="230" width="120" height="20" as="geometry" />
        </mxCell>
        <mxCell id="WgYySzokD8t3va2fA1Zr-114" style="edgeStyle=orthogonalEdgeStyle;rounded=0;orthogonalLoop=1;jettySize=auto;html=1;exitX=0;exitY=0.5;exitDx=0;exitDy=0;" edge="1" parent="1" source="9Sg-FpnQoyW8FFDNCrjP-49" target="9Sg-FpnQoyW8FFDNCrjP-1">
          <mxGeometry relative="1" as="geometry">
            <mxPoint x="30" y="640" as="targetPoint" />
            <Array as="points">
              <mxPoint x="80" y="1170" />
              <mxPoint x="-430" y="1170" />
              <mxPoint x="-430" y="505" />
            </Array>
          </mxGeometry>
        </mxCell>
        <mxCell id="WgYySzokD8t3va2fA1Zr-115" style="edgeStyle=orthogonalEdgeStyle;rounded=0;orthogonalLoop=1;jettySize=auto;html=1;entryX=0.996;entryY=0.701;entryDx=0;entryDy=0;entryPerimeter=0;" edge="1" parent="1" source="9Sg-FpnQoyW8FFDNCrjP-43" target="WgYySzokD8t3va2fA1Zr-105">
          <mxGeometry relative="1" as="geometry" />
        </mxCell>
        <mxCell id="WgYySzokD8t3va2fA1Zr-117" value="Database Service" style="swimlane;fillColor=#dae8fc;strokeColor=#6c8ebf;" vertex="1" parent="1">
          <mxGeometry x="-360" y="876.25" width="160" height="153.75" as="geometry" />
        </mxCell>
        <mxCell id="WgYySzokD8t3va2fA1Zr-116" value="Save To CloudKit" style="shape=cylinder3;whiteSpace=wrap;html=1;boundedLbl=1;backgroundOutline=1;size=15;" vertex="1" parent="WgYySzokD8t3va2fA1Zr-117">
          <mxGeometry x="25" y="33.75" width="110" height="90" as="geometry" />
        </mxCell>
        <mxCell id="WgYySzokD8t3va2fA1Zr-119" style="edgeStyle=orthogonalEdgeStyle;rounded=0;orthogonalLoop=1;jettySize=auto;html=1;entryX=0.5;entryY=1;entryDx=0;entryDy=0;" edge="1" parent="1" source="WgYySzokD8t3va2fA1Zr-118" target="WgYySzokD8t3va2fA1Zr-117">
          <mxGeometry relative="1" as="geometry" />
        </mxCell>
        <mxCell id="WgYySzokD8t3va2fA1Zr-120" style="edgeStyle=orthogonalEdgeStyle;rounded=0;orthogonalLoop=1;jettySize=auto;html=1;entryX=0.299;entryY=1.007;entryDx=0;entryDy=0;entryPerimeter=0;" edge="1" parent="1" source="WgYySzokD8t3va2fA1Zr-117" target="9Sg-FpnQoyW8FFDNCrjP-1">
          <mxGeometry relative="1" as="geometry">
            <mxPoint x="-280" y="650" as="targetPoint" />
          </mxGeometry>
        </mxCell>
        <mxCell id="WgYySzokD8t3va2fA1Zr-121" style="edgeStyle=orthogonalEdgeStyle;rounded=0;orthogonalLoop=1;jettySize=auto;html=1;entryX=0.5;entryY=1;entryDx=0;entryDy=0;" edge="1" parent="1" source="WgYySzokD8t3va2fA1Zr-3" target="S4i9Vi7lNQ9c3gx2z7o1-136">
          <mxGeometry relative="1" as="geometry" />
        </mxCell>
        <mxCell id="WgYySzokD8t3va2fA1Zr-123" value="WILKS Score&amp;nbsp;" style="rounded=0;whiteSpace=wrap;html=1;fontColor=#000000;" vertex="1" parent="1">
          <mxGeometry x="750" y="171.75" width="120" height="20" as="geometry" />
        </mxCell>
        <mxCell id="WgYySzokD8t3va2fA1Zr-129" style="edgeStyle=orthogonalEdgeStyle;rounded=0;orthogonalLoop=1;jettySize=auto;html=1;" edge="1" parent="1" source="WgYySzokD8t3va2fA1Zr-125" target="WgYySzokD8t3va2fA1Zr-127">
          <mxGeometry relative="1" as="geometry" />
        </mxCell>
        <mxCell id="WgYySzokD8t3va2fA1Zr-125" value="Update Profile&amp;nbsp;" style="rounded=0;whiteSpace=wrap;html=1;fontColor=#000000;" vertex="1" parent="1">
          <mxGeometry x="750" y="141.75" width="120" height="20" as="geometry" />
        </mxCell>
        <mxCell id="WgYySzokD8t3va2fA1Zr-126" value="Total Lifted Weight" style="rounded=0;whiteSpace=wrap;html=1;fontColor=#000000;" vertex="1" parent="1">
          <mxGeometry x="750" y="200" width="120" height="20" as="geometry" />
        </mxCell>
        <mxCell id="WgYySzokD8t3va2fA1Zr-127" value="Save to CloudKit&amp;nbsp;" style="shape=cylinder3;whiteSpace=wrap;html=1;boundedLbl=1;backgroundOutline=1;size=15;" vertex="1" parent="1">
          <mxGeometry x="545" y="10" width="110" height="90" as="geometry" />
        </mxCell>
        <mxCell id="WgYySzokD8t3va2fA1Zr-128" value="Database Service" style="swimlane;fillColor=#dae8fc;strokeColor=#6c8ebf;" vertex="1" parent="1">
          <mxGeometry x="520" y="-40" width="160" height="153.75" as="geometry" />
        </mxCell>
        <mxCell id="WgYySzokD8t3va2fA1Zr-136" style="edgeStyle=orthogonalEdgeStyle;rounded=0;orthogonalLoop=1;jettySize=auto;html=1;" edge="1" parent="1" source="WgYySzokD8t3va2fA1Zr-132" target="WgYySzokD8t3va2fA1Zr-134">
          <mxGeometry relative="1" as="geometry">
            <mxPoint x="950" y="-10" as="targetPoint" />
            <Array as="points">
              <mxPoint x="970" y="241" />
              <mxPoint x="970" y="-10" />
            </Array>
          </mxGeometry>
        </mxCell>
        <mxCell id="WgYySzokD8t3va2fA1Zr-132" value="Logout" style="rounded=0;whiteSpace=wrap;html=1;fontColor=#000000;" vertex="1" parent="1">
          <mxGeometry x="820" y="231.88" width="80" height="18.75" as="geometry" />
        </mxCell>
        <mxCell id="WgYySzokD8t3va2fA1Zr-133" value="Authentication Service" style="swimlane;fillColor=#dae8fc;strokeColor=#6c8ebf;" vertex="1" parent="1">
          <mxGeometry x="1000" y="-125" width="200" height="200" as="geometry" />
        </mxCell>
        <mxCell id="WgYySzokD8t3va2fA1Zr-134" value="De-Authenticate user with Firebase Auth or Apple ID" style="ellipse;shape=cloud;whiteSpace=wrap;html=1;" vertex="1" parent="WgYySzokD8t3va2fA1Zr-133">
          <mxGeometry y="50.25" width="190" height="139.75" as="geometry" />
        </mxCell>
        <mxCell id="WgYySzokD8t3va2fA1Zr-135" style="edgeStyle=orthogonalEdgeStyle;rounded=0;orthogonalLoop=1;jettySize=auto;html=1;exitX=0.505;exitY=0.12;exitDx=0;exitDy=0;exitPerimeter=0;" edge="1" parent="1" source="WgYySzokD8t3va2fA1Zr-134" target="9Sg-FpnQoyW8FFDNCrjP-2">
          <mxGeometry relative="1" as="geometry">
            <Array as="points">
              <mxPoint x="1095" y="-58" />
              <mxPoint x="1095" y="-170" />
              <mxPoint x="-250" y="-170" />
            </Array>
          </mxGeometry>
        </mxCell>
      </root>
    </mxGraphModel>
  </diagram>
</mxfile>
